{"title":"Dawn Of The Planet of The Apes 2014 HDCAM x264 AC3-TOPNOTCH","uid":11190527,"size":1775332655,"categoryP":"video","categoryS":"movies","magnet":"?xt=urn:btih:af4e21cd07b00fdb060e590468a50d6620329e58&amp;dn=Dawn+Of+The+Planet+of+The+Apes+2014+HDCAM+x264+AC3-TOPNOTCH&amp;tr=udp%3A%2F%2Ftracker.openbittorrent.com%3A80&amp;tr=udp%3A%2F%2Fopen.demonii.com%3A1337&amp;tr=udp%3A%2F%2Ftracker.coppersurfer.tk%3A6969&amp;tr=udp%3A%2F%2Fexodus.desync.com%3A6969","seeders":3,"leechers":0,"uploader":"TvTeam","files":4,"time":1412986636,"description":" &lt;a href=&quot;http://www.torrenting.com&quot; rel=&quot;nofollow&quot; target=&quot;_NEW&quot;&gt;http://www.torrenting.com&lt;/a&gt;\n\nSign up is OPEN - for time being. Come and have fun.\n\n\n....[img]http://i.imgur.com/pqYAv5I.jpg[/img]\n\nSOURCES: Vid - 720p.Mp4ba ... Audio - JYK ... Sub File - A Friend :) Thnx\n\nNotes - Resized, Hardcoded the subs needed for foreign parts only, I Adjusted some gamma, saturation, contrast, and some coef settings, giving it a bit more life and detail :) Audio is in sync too, Enjoy\n\nGeneral\nComplete name                            : Dawn Of The Planet of The Apes 2014 HDCAM x264 AC3-TOPNOTCH.mkv\nFormat                                   : Matroska\nFormat version                           : Version 2\nFile size                                : 1.63 GiB\nDuration                                 : 2h 5mn\nOverall bit rate mode                    : Variable\nOverall bit rate                         : 1 865 Kbps\nEncoded date                             : UTC 2014-10-10 19:22:51\nWriting application                      : mkvmerge v7.2.0 ('On Every Street') 32bit built on Sep 13 2014 15:42:11\nWriting library                          : libebml v1.3.0 + libmatroska v1.4.1\n\nVideo\nID                                       : 1\nFormat                                   : AVC\nFormat/Info                              : Advanced Video Codec\nFormat profile                           : &lt;a class=&quot;__cf_email__&quot; href=&quot;/cdn-cgi/l/email-protection&quot; data-cfemail=&quot;efa7868887afa3dbc1de&quot;&gt;[email&amp;#160;protected]&lt;/a&gt;&lt;script cf-hash='f9e31' type=&quot;text/javascript&quot;&gt;\n/* &lt;![CDATA[ */!function(){try{var t=&quot;currentScript&quot;in document?document.currentScript:function(){for(var t=document.getElementsByTagName(&quot;script&quot;),e=t.length;e--;)if(t[e].getAttribute(&quot;cf-hash&quot;))return t[e]}();if(t&amp;&amp;t.previousSibling){var e,r,n,i,c=t.previousSibling,a=c.getAttribute(&quot;data-cfemail&quot;);if(a){for(e=&quot;&quot;,r=parseInt(a.substr(0,2),16),n=2;a.length-n;n+=2)i=parseInt(a.substr(n,2),16)^r,e+=String.fromCharCode(i);e=document.createTextNode(e),c.parentNode.replaceChild(e,c)}}}catch(u){}}();/* ]]&gt; */&lt;/script&gt;\nFormat settings, CABAC                   : Yes\nFormat settings, ReFrames                : 3 frames\nCodec ID                                 : V_MPEG4/ISO/AVC\nDuration                                 : 2h 5mn\nBit rate mode                            : Variable\nBit rate                                 : 1 572 Kbps\nMaximum bit rate                         : 40.0 Mbps\nWidth                                    : 720 pixels\nHeight                                   : 400 pixels\nDisplay aspect ratio                     : 16:9\nFrame rate mode                          : Constant\nFrame rate                               : 25.000 fps\nColor space                              : YUV\nChroma subsampling                       : 4:2:0\nBit depth                                : 8 bits\nScan type                                : Progressive\nBits/(Pixel*Frame)                       : 0.218\nStream size                              : 1.38 GiB (84%)\nWriting library                          : x264 core 142 r2479 dd79a61\n\nAudio\nID                                       : 2\nFormat                                   : AC-3\nFormat/Info                              : Audio Coding 3\nMode extension                           : CM (complete main)\nFormat settings, Endianness              : Big\nCodec ID                                 : A_AC3\nDuration                                 : 2h 5mn\nBit rate mode                            : Constant\nBit rate                                 : 256 Kbps\nChannel(s)                               : 6 channels\nChannel positions                        : Front: L C R, Side: L R, LFE\nSampling rate                            : 48.0 KHz\nBit depth                                : 16 bits\nCompression mode                         : Lossy\nStream size                              : 230 MiB (14%)\nLanguage                                 : English\nDefault                                  : Yes\nForced                                   : No\n\n[img]http://i.imgur.com/9euivZT.jpg[/img]\n[img]http://i.imgur.com/RrmNUr7.jpg[/img]\n[img]http://i.imgur.com/F2Ad9u0.jpg[/img]\n[img]http://i.imgur.com/YRoend2.jpg[/img]\n[img]http://i.imgur.com/F7v46xU.jpg[/img]\n\n[img]http://i.imgur.com/F3KImDf.gif[/img]","torrent":{"xt":"urn:btih:af4e21cd07b00fdb060e590468a50d6620329e58","amp;dn":"Dawn+Of+The+Planet+of+The+Apes+2014+HDCAM+x264+AC3-TOPNOTCH","amp;tr":["udp%3A%2F%2Ftracker.openbittorrent.com%3A80","udp%3A%2F%2Fopen.demonii.com%3A1337","udp%3A%2F%2Ftracker.coppersurfer.tk%3A6969","udp%3A%2F%2Fexodus.desync.com%3A6969"],"infoHash":"af4e21cd07b00fdb060e590468a50d6620329e58","infoHashBuffer":{"type":"Buffer","data":[175,78,33,205,7,176,15,219,6,14,89,4,104,165,13,102,32,50,158,88]},"announce":[],"urlList":[]}}